v 1.000000 0.000000 0.000000
v 0.984808 -0.000000 0.173648
v 0.939693 -0.000000 0.342020
v 0.866025 -0.000000 0.500000
v 0.766044 -0.000000 0.642788
v 0.642788 -0.000000 0.766044
v 0.500000 -0.000000 0.866025
v 0.342020 -0.000000 0.939693
v 0.173648 -0.000000 0.984808
v 0.000000 -0.000000 1.000000
v -0.173648 -0.000000 0.984808
v -0.342020 -0.000000 0.939693
v -0.500000 -0.000000 0.866025
v -0.642788 -0.000000 0.766044
v -0.766044 -0.000000 0.642788
v -0.866025 -0.000000 0.500000
v -0.939693 -0.000000 0.342020
v -0.984808 -0.000000 0.173648
v -1.000000 -0.000000 0.000000
v -0.984808 0.000000 -0.173648
v -0.939693 0.000000 -0.342020
v -0.866025 0.000000 -0.500000
v -0.766044 0.000000 -0.642788
v -0.642788 0.000000 -0.766044
v -0.500000 0.000000 -0.866025
v -0.342020 0.000000 -0.939693
v -0.173648 0.000000 -0.984808
v -0.000000 0.000000 -1.000000
v 0.173648 0.000000 -0.984808
v 0.342020 0.000000 -0.939693
v 0.500000 0.000000 -0.866025
v 0.642788 0.000000 -0.766044
v 0.766044 0.000000 -0.642788
v 0.866025 0.000000 -0.500000
v 0.939693 0.000000 -0.342020
v 0.984808 0.000000 -0.173648
v 1.000000 2.000000 0.000000
v 0.984808 2.000000 0.173648
v 0.939693 2.000000 0.342020
v 0.866025 2.000000 0.500000
v 0.766044 2.000000 0.642788
v 0.642788 2.000000 0.766044
v 0.500000 2.000000 0.866025
v 0.342020 2.000000 0.939693
v 0.173648 2.000000 0.984808
v 0.000000 2.000000 1.000000
v -0.173648 2.000000 0.984808
v -0.342020 2.000000 0.939693
v -0.500000 2.000000 0.866025
v -0.642788 2.000000 0.766044
v -0.766044 2.000000 0.642788
v -0.866025 2.000000 0.500000
v -0.939693 2.000000 0.342020
v -0.984808 2.000000 0.173648
v -1.000000 2.000000 0.000000
v -0.984808 2.000000 -0.173648
v -0.939693 2.000000 -0.342020
v -0.866025 2.000000 -0.500000
v -0.766044 2.000000 -0.642788
v -0.642788 2.000000 -0.766044
v -0.500000 2.000000 -0.866025
v -0.342020 2.000000 -0.939693
v -0.173648 2.000000 -0.984808
v -0.000000 2.000000 -1.000000
v 0.173648 2.000000 -0.984808
v 0.342020 2.000000 -0.939693
v 0.500000 2.000000 -0.866025
v 0.642788 2.000000 -0.766044
v 0.766044 2.000000 -0.642788
v 0.866025 2.000000 -0.500000
v 0.939693 2.000000 -0.342020
v 0.984808 2.000000 -0.173648
vn 0.0000 -1.0000 -0.0000
vn 0.9962 0.0000 -0.0872
vn 0.9962 0.0000 0.0872
vn 0.9659 0.0000 0.2588
vn 0.9063 0.0000 0.4226
vn 0.8192 0.0000 0.5736
vn 0.7071 -0.0000 0.7071
vn 0.5736 -0.0000 0.8192
vn 0.4226 -0.0000 0.9063
vn 0.2588 -0.0000 0.9659
vn 0.0872 -0.0000 0.9962
vn -0.0872 -0.0000 0.9962
vn -0.2588 -0.0000 0.9659
vn -0.4226 -0.0000 0.9063
vn -0.5736 -0.0000 0.8192
vn -0.7071 -0.0000 0.7071
vn -0.8192 0.0000 0.5736
vn -0.9063 0.0000 0.4226
vn -0.9659 0.0000 0.2588
vn -0.9962 0.0000 0.0872
vn -0.9962 0.0000 -0.0872
vn -0.9659 0.0000 -0.2588
vn -0.9063 0.0000 -0.4226
vn -0.8192 0.0000 -0.5736
vn -0.7071 0.0000 -0.7071
vn -0.5736 0.0000 -0.8192
vn -0.4226 0.0000 -0.9063
vn -0.2588 0.0000 -0.9659
vn -0.0872 0.0000 -0.9962
vn 0.0872 0.0000 -0.9962
vn 0.2588 0.0000 -0.9659
vn 0.4226 0.0000 -0.9063
vn 0.5736 0.0000 -0.8192
vn 0.7071 0.0000 -0.7071
vn 0.8192 0.0000 -0.5736
vn 0.9063 0.0000 -0.4226
vn 0.9659 0.0000 -0.2588
f 1//1 2//1 3//1
f 1//1 3//1 4//1
f 1//1 4//1 5//1
f 1//1 5//1 6//1
f 1//1 6//1 7//1
f 1//1 7//1 8//1
f 1//1 8//1 9//1
f 1//1 9//1 10//1
f 1//1 10//1 11//1
f 1//1 11//1 12//1
f 1//1 12//1 13//1
f 1//1 13//1 14//1
f 1//1 14//1 15//1
f 1//1 15//1 16//1
f 1//1 16//1 17//1
f 1//1 17//1 18//1
f 1//1 18//1 19//1
f 1//1 19//1 20//1
f 1//1 20//1 21//1
f 1//1 21//1 22//1
f 1//1 22//1 23//1
f 1//1 23//1 24//1
f 1//1 24//1 25//1
f 1//1 25//1 26//1
f 1//1 26//1 27//1
f 1//1 27//1 28//1
f 1//1 28//1 29//1
f 1//1 29//1 30//1
f 1//1 30//1 31//1
f 1//1 31//1 32//1
f 1//1 32//1 33//1
f 1//1 33//1 34//1
f 1//1 34//1 35//1
f 1//1 35//1 36//1
f 37//1 38//1 39//1
f 37//1 39//1 40//1
f 37//1 40//1 41//1
f 37//1 41//1 42//1
f 37//1 42//1 43//1
f 37//1 43//1 44//1
f 37//1 44//1 45//1
f 37//1 45//1 46//1
f 37//1 46//1 47//1
f 37//1 47//1 48//1
f 37//1 48//1 49//1
f 37//1 49//1 50//1
f 37//1 50//1 51//1
f 37//1 51//1 52//1
f 37//1 52//1 53//1
f 37//1 53//1 54//1
f 37//1 54//1 55//1
f 37//1 55//1 56//1
f 37//1 56//1 57//1
f 37//1 57//1 58//1
f 37//1 58//1 59//1
f 37//1 59//1 60//1
f 37//1 60//1 61//1
f 37//1 61//1 62//1
f 37//1 62//1 63//1
f 37//1 63//1 64//1
f 37//1 64//1 65//1
f 37//1 65//1 66//1
f 37//1 66//1 67//1
f 37//1 67//1 68//1
f 37//1 68//1 69//1
f 37//1 69//1 70//1
f 37//1 70//1 71//1
f 37//1 71//1 72//1
f 1//2 36//2 37//2
f 1//3 37//3 2//3
f 2//3 37//3 38//3
f 2//4 38//4 3//4
f 3//4 38//4 39//4
f 3//5 39//5 4//5
f 4//5 39//5 40//5
f 4//6 40//6 5//6
f 5//6 40//6 41//6
f 5//7 41//7 6//7
f 6//7 41//7 42//7
f 6//8 42//8 7//8
f 7//8 42//8 43//8
f 7//9 43//9 8//9
f 8//9 43//9 44//9
f 8//10 44//10 9//10
f 9//10 44//10 45//10
f 9//11 45//11 10//11
f 10//11 45//11 46//11
f 10//12 46//12 11//12
f 11//12 46//12 47//12
f 11//13 47//13 12//13
f 12//13 47//13 48//13
f 12//14 48//14 13//14
f 13//14 48//14 49//14
f 13//15 49//15 14//15
f 14//15 49//15 50//15
f 14//16 50//16 15//16
f 15//16 50//16 51//16
f 15//17 51//17 16//17
f 16//17 51//17 52//17
f 16//18 52//18 17//18
f 17//18 52//18 53//18
f 17//19 53//19 18//19
f 18//19 53//19 54//19
f 18//20 54//20 19//20
f 19//20 54//20 55//20
f 19//21 55//21 20//21
f 20//21 55//21 56//21
f 20//22 56//22 21//22
f 21//22 56//22 57//22
f 21//23 57//23 22//23
f 22//23 57//23 58//23
f 22//24 58//24 23//24
f 23//24 58//24 59//24
f 23//25 59//25 24//25
f 24//25 59//25 60//25
f 24//26 60//26 25//26
f 25//26 60//26 61//26
f 25//27 61//27 26//27
f 26//27 61//27 62//27
f 26//28 62//28 27//28
f 27//28 62//28 63//28
f 27//29 63//29 28//29
f 28//29 63//29 64//29
f 28//30 64//30 29//30
f 29//30 64//30 65//30
f 29//31 65//31 30//31
f 30//31 65//31 66//31
f 30//32 66//32 31//32
f 31//32 66//32 67//32
f 31//33 67//33 32//33
f 32//33 67//33 68//33
f 32//34 68//34 33//34
f 33//34 68//34 69//34
f 33//35 69//35 34//35
f 34//35 69//35 70//35
f 34//36 70//36 35//36
f 35//36 70//36 71//36
f 35//37 71//37 36//37
f 36//37 71//37 72//37
f 36//2 72//2 37//2
