v 1.000000 0.000000 0.000000
v 0.994522 -0.000000 0.104528
v 0.978148 -0.000000 0.207912
v 0.951057 -0.000000 0.309017
v 0.913545 -0.000000 0.406737
v 0.866025 -0.000000 0.500000
v 0.809017 -0.000000 0.587785
v 0.743145 -0.000000 0.669131
v 0.669131 -0.000000 0.743145
v 0.587785 -0.000000 0.809017
v 0.500000 -0.000000 0.866025
v 0.406737 -0.000000 0.913545
v 0.309017 -0.000000 0.951057
v 0.207912 -0.000000 0.978148
v 0.104528 -0.000000 0.994522
v 0.000000 -0.000000 1.000000
v -0.104528 -0.000000 0.994522
v -0.207912 -0.000000 0.978148
v -0.309017 -0.000000 0.951057
v -0.406737 -0.000000 0.913545
v -0.500000 -0.000000 0.866025
v -0.587785 -0.000000 0.809017
v -0.669131 -0.000000 0.743145
v -0.743145 -0.000000 0.669131
v -0.809017 -0.000000 0.587785
v -0.866025 -0.000000 0.500000
v -0.913545 -0.000000 0.406737
v -0.951057 -0.000000 0.309017
v -0.978148 -0.000000 0.207912
v -0.994522 -0.000000 0.104528
v -1.000000 -0.000000 0.000000
v -0.994522 0.000000 -0.104528
v -0.978148 0.000000 -0.207912
v -0.951057 0.000000 -0.309017
v -0.913545 0.000000 -0.406737
v -0.866025 0.000000 -0.500000
v -0.809017 0.000000 -0.587785
v -0.743145 0.000000 -0.669131
v -0.669131 0.000000 -0.743145
v -0.587785 0.000000 -0.809017
v -0.500000 0.000000 -0.866025
v -0.406737 0.000000 -0.913545
v -0.309017 0.000000 -0.951057
v -0.207912 0.000000 -0.978148
v -0.104528 0.000000 -0.994522
v -0.000000 0.000000 -1.000000
v 0.104528 0.000000 -0.994522
v 0.207912 0.000000 -0.978148
v 0.309017 0.000000 -0.951057
v 0.406737 0.000000 -0.913545
v 0.500000 0.000000 -0.866025
v 0.587785 0.000000 -0.809017
v 0.669131 0.000000 -0.743145
v 0.743145 0.000000 -0.669131
v 0.809017 0.000000 -0.587785
v 0.866025 0.000000 -0.500000
v 0.913545 0.000000 -0.406737
v 0.951057 0.000000 -0.309017
v 0.978148 0.000000 -0.207912
v 0.994522 0.000000 -0.104528
v 1.000000 2.000000 0.000000
v 0.994522 2.000000 0.104529
v 0.978148 2.000000 0.207912
v 0.951057 2.000000 0.309017
v 0.913545 2.000000 0.406737
v 0.866025 2.000000 0.500000
v 0.809017 2.000000 0.587785
v 0.743145 2.000000 0.669131
v 0.669131 2.000000 0.743145
v 0.587785 2.000000 0.809017
v 0.500000 2.000000 0.866025
v 0.406737 2.000000 0.913545
v 0.309017 2.000000 0.951057
v 0.207912 2.000000 0.978148
v 0.104528 2.000000 0.994522
v 0.000000 2.000000 1.000000
v -0.104528 2.000000 0.994522
v -0.207912 2.000000 0.978148
v -0.309017 2.000000 0.951057
v -0.406737 2.000000 0.913545
v -0.500000 2.000000 0.866025
v -0.587785 2.000000 0.809017
v -0.669131 2.000000 0.743145
v -0.743145 2.000000 0.669131
v -0.809017 2.000000 0.587785
v -0.866025 2.000000 0.500000
v -0.913545 2.000000 0.406737
v -0.951057 2.000000 0.309017
v -0.978148 2.000000 0.207912
v -0.994522 2.000000 0.104529
v -1.000000 2.000000 0.000000
v -0.994522 2.000000 -0.104528
v -0.978148 2.000000 -0.207912
v -0.951057 2.000000 -0.309017
v -0.913545 2.000000 -0.406737
v -0.866025 2.000000 -0.500000
v -0.809017 2.000000 -0.587785
v -0.743145 2.000000 -0.669131
v -0.669131 2.000000 -0.743145
v -0.587785 2.000000 -0.809017
v -0.500000 2.000000 -0.866025
v -0.406737 2.000000 -0.913545
v -0.309017 2.000000 -0.951056
v -0.207912 2.000000 -0.978148
v -0.104528 2.000000 -0.994522
v -0.000000 2.000000 -1.000000
v 0.104528 2.000000 -0.994522
v 0.207912 2.000000 -0.978148
v 0.309017 2.000000 -0.951056
v 0.406737 2.000000 -0.913545
v 0.500000 2.000000 -0.866025
v 0.587785 2.000000 -0.809017
v 0.669131 2.000000 -0.743145
v 0.743145 2.000000 -0.669131
v 0.809017 2.000000 -0.587785
v 0.866025 2.000000 -0.500000
v 0.913545 2.000000 -0.406737
v 0.951057 2.000000 -0.309017
v 0.978148 2.000000 -0.207912
v 0.994522 2.000000 -0.104528
vn -0.0000 -1.0000 -0.0000
vn 0.9986 0.0000 -0.0523
vn 0.9986 0.0000 0.0523
vn 0.9877 0.0000 0.1564
vn 0.9659 -0.0000 0.2588
vn 0.9336 0.0000 0.3584
vn 0.8910 -0.0000 0.4540
vn 0.8387 0.0000 0.5446
vn 0.7771 0.0000 0.6293
vn 0.7071 0.0000 0.7071
vn 0.6293 -0.0000 0.7771
vn 0.5446 -0.0000 0.8387
vn 0.4540 -0.0000 0.8910
vn 0.3584 -0.0000 0.9336
vn 0.2588 -0.0000 0.9659
vn 0.1564 -0.0000 0.9877
vn 0.0523 -0.0000 0.9986
vn -0.0523 -0.0000 0.9986
vn -0.1564 -0.0000 0.9877
vn -0.2588 -0.0000 0.9659
vn -0.3584 -0.0000 0.9336
vn -0.4540 -0.0000 0.8910
vn -0.5446 -0.0000 0.8387
vn -0.6293 -0.0000 0.7771
vn -0.7071 0.0000 0.7071
vn -0.7771 0.0000 0.6293
vn -0.8387 -0.0000 0.5446
vn -0.8910 0.0000 0.4540
vn -0.9336 -0.0000 0.3584
vn -0.9659 -0.0000 0.2588
vn -0.9877 0.0000 0.1564
vn -0.9986 0.0000 0.0523
vn -0.9986 0.0000 -0.0523
vn -0.9877 0.0000 -0.1564
vn -0.9659 0.0000 -0.2588
vn -0.9336 -0.0000 -0.3584
vn -0.8910 0.0000 -0.4540
vn -0.8387 0.0000 -0.5446
vn -0.7771 0.0000 -0.6293
vn -0.7071 0.0000 -0.7071
vn -0.6293 0.0000 -0.7771
vn -0.5446 0.0000 -0.8387
vn -0.4540 0.0000 -0.8910
vn -0.3584 0.0000 -0.9336
vn -0.2588 0.0000 -0.9659
vn -0.1564 0.0000 -0.9877
vn -0.0523 0.0000 -0.9986
vn 0.0523 0.0000 -0.9986
vn 0.1564 0.0000 -0.9877
vn 0.2588 0.0000 -0.9659
vn 0.3584 0.0000 -0.9336
vn 0.4540 0.0000 -0.8910
vn 0.5446 0.0000 -0.8387
vn 0.6293 0.0000 -0.7771
vn 0.7071 0.0000 -0.7071
vn 0.7771 0.0000 -0.6293
vn 0.8387 0.0000 -0.5446
vn 0.8910 0.0000 -0.4540
vn 0.9336 0.0000 -0.3584
vn 0.9659 0.0000 -0.2588
vn 0.9877 0.0000 -0.1564
f 1//1 2//1 3//1
f 1//1 3//1 4//1
f 1//1 4//1 5//1
f 1//1 5//1 6//1
f 1//1 6//1 7//1
f 1//1 7//1 8//1
f 1//1 8//1 9//1
f 1//1 9//1 10//1
f 1//1 10//1 11//1
f 1//1 11//1 12//1
f 1//1 12//1 13//1
f 1//1 13//1 14//1
f 1//1 14//1 15//1
f 1//1 15//1 16//1
f 1//1 16//1 17//1
f 1//1 17//1 18//1
f 1//1 18//1 19//1
f 1//1 19//1 20//1
f 1//1 20//1 21//1
f 1//1 21//1 22//1
f 1//1 22//1 23//1
f 1//1 23//1 24//1
f 1//1 24//1 25//1
f 1//1 25//1 26//1
f 1//1 26//1 27//1
f 1//1 27//1 28//1
f 1//1 28//1 29//1
f 1//1 29//1 30//1
f 1//1 30//1 31//1
f 1//1 31//1 32//1
f 1//1 32//1 33//1
f 1//1 33//1 34//1
f 1//1 34//1 35//1
f 1//1 35//1 36//1
f 1//1 36//1 37//1
f 1//1 37//1 38//1
f 1//1 38//1 39//1
f 1//1 39//1 40//1
f 1//1 40//1 41//1
f 1//1 41//1 42//1
f 1//1 42//1 43//1
f 1//1 43//1 44//1
f 1//1 44//1 45//1
f 1//1 45//1 46//1
f 1//1 46//1 47//1
f 1//1 47//1 48//1
f 1//1 48//1 49//1
f 1//1 49//1 50//1
f 1//1 50//1 51//1
f 1//1 51//1 52//1
f 1//1 52//1 53//1
f 1//1 53//1 54//1
f 1//1 54//1 55//1
f 1//1 55//1 56//1
f 1//1 56//1 57//1
f 1//1 57//1 58//1
f 1//1 58//1 59//1
f 1//1 59//1 60//1
f 61//1 62//1 63//1
f 61//1 63//1 64//1
f 61//1 64//1 65//1
f 61//1 65//1 66//1
f 61//1 66//1 67//1
f 61//1 67//1 68//1
f 61//1 68//1 69//1
f 61//1 69//1 70//1
f 61//1 70//1 71//1
f 61//1 71//1 72//1
f 61//1 72//1 73//1
f 61//1 73//1 74//1
f 61//1 74//1 75//1
f 61//1 75//1 76//1
f 61//1 76//1 77//1
f 61//1 77//1 78//1
f 61//1 78//1 79//1
f 61//1 79//1 80//1
f 61//1 80//1 81//1
f 61//1 81//1 82//1
f 61//1 82//1 83//1
f 61//1 83//1 84//1
f 61//1 84//1 85//1
f 61//1 85//1 86//1
f 61//1 86//1 87//1
f 61//1 87//1 88//1
f 61//1 88//1 89//1
f 61//1 89//1 90//1
f 61//1 90//1 91//1
f 61//1 91//1 92//1
f 61//1 92//1 93//1
f 61//1 93//1 94//1
f 61//1 94//1 95//1
f 61//1 95//1 96//1
f 61//1 96//1 97//1
f 61//1 97//1 98//1
f 61//1 98//1 99//1
f 61//1 99//1 100//1
f 61//1 100//1 101//1
f 61//1 101//1 102//1
f 61//1 102//1 103//1
f 61//1 103//1 104//1
f 61//1 104//1 105//1
f 61//1 105//1 106//1
f 61//1 106//1 107//1
f 61//1 107//1 108//1
f 61//1 108//1 109//1
f 61//1 109//1 110//1
f 61//1 110//1 111//1
f 61//1 111//1 112//1
f 61//1 112//1 113//1
f 61//1 113//1 114//1
f 61//1 114//1 115//1
f 61//1 115//1 116//1
f 61//1 116//1 117//1
f 61//1 117//1 118//1
f 61//1 118//1 119//1
f 61//1 119//1 120//1
f 1//2 60//2 61//2
f 1//3 61//3 2//3
f 2//3 61//3 62//3
f 2//4 62//4 3//4
f 3//4 62//4 63//4
f 3//5 63//5 4//5
f 4//5 63//5 64//5
f 4//6 64//6 5//6
f 5//6 64//6 65//6
f 5//7 65//7 6//7
f 6//7 65//7 66//7
f 6//8 66//8 7//8
f 7//8 66//8 67//8
f 7//9 67//9 8//9
f 8//9 67//9 68//9
f 8//10 68//10 9//10
f 9//10 68//10 69//10
f 9//11 69//11 10//11
f 10//11 69//11 70//11
f 10//12 70//12 11//12
f 11//12 70//12 71//12
f 11//13 71//13 12//13
f 12//13 71//13 72//13
f 12//14 72//14 13//14
f 13//14 72//14 73//14
f 13//15 73//15 14//15
f 14//15 73//15 74//15
f 14//16 74//16 15//16
f 15//16 74//16 75//16
f 15//17 75//17 16//17
f 16//17 75//17 76//17
f 16//18 76//18 17//18
f 17//18 76//18 77//18
f 17//19 77//19 18//19
f 18//19 77//19 78//19
f 18//20 78//20 19//20
f 19//20 78//20 79//20
f 19//21 79//21 20//21
f 20//21 79//21 80//21
f 20//22 80//22 21//22
f 21//22 80//22 81//22
f 21//23 81//23 22//23
f 22//23 81//23 82//23
f 22//24 82//24 23//24
f 23//24 82//24 83//24
f 23//25 83//25 24//25
f 24//25 83//25 84//25
f 24//26 84//26 25//26
f 25//26 84//26 85//26
f 25//27 85//27 26//27
f 26//27 85//27 86//27
f 26//28 86//28 27//28
f 27//28 86//28 87//28
f 27//29 87//29 28//29
f 28//29 87//29 88//29
f 28//30 88//30 29//30
f 29//30 88//30 89//30
f 29//31 89//31 30//31
f 30//31 89//31 90//31
f 30//32 90//32 31//32
f 31//32 90//32 91//32
f 31//33 91//33 32//33
f 32//33 91//33 92//33
f 32//34 92//34 33//34
f 33//34 92//34 93//34
f 33//35 93//35 34//35
f 34//35 93//35 94//35
f 34//36 94//36 35//36
f 35//36 94//36 95//36
f 35//37 95//37 36//37
f 36//37 95//37 96//37
f 36//38 96//38 37//38
f 37//38 96//38 97//38
f 37//39 97//39 38//39
f 38//39 97//39 98//39
f 38//40 98//40 39//40
f 39//40 98//40 99//40
f 39//41 99//41 40//41
f 40//41 99//41 100//41
f 40//42 100//42 41//42
f 41//42 100//42 101//42
f 41//43 101//43 42//43
f 42//43 101//43 102//43
f 42//44 102//44 43//44
f 43//44 102//44 103//44
f 43//45 103//45 44//45
f 44//45 103//45 104//45
f 44//46 104//46 45//46
f 45//46 104//46 105//46
f 45//47 105//47 46//47
f 46//47 105//47 106//47
f 46//48 106//48 47//48
f 47//48 106//48 107//48
f 47//49 107//49 48//49
f 48//49 107//49 108//49
f 48//50 108//50 49//50
f 49//50 108//50 109//50
f 49//51 109//51 50//51
f 50//51 109//51 110//51
f 50//52 110//52 51//52
f 51//52 110//52 111//52
f 51//53 111//53 52//53
f 52//53 111//53 112//53
f 52//54 112//54 53//54
f 53//54 112//54 113//54
f 53//55 113//55 54//55
f 54//55 113//55 114//55
f 54//56 114//56 55//56
f 55//56 114//56 115//56
f 55//57 115//57 56//57
f 56//57 115//57 116//57
f 56//58 116//58 57//58
f 57//58 116//58 117//58
f 57//59 117//59 58//59
f 58//59 117//59 118//59
f 58//60 118//60 59//60
f 59//60 118//60 119//60
f 59//61 119//61 60//61
f 60//61 119//61 120//61
f 60//2 120//2 61//2
